ISO-10303-21;
HEADER;
/* Generated by software containing ST-Developer
 * from STEP Tools, Inc. (www.steptools.com) 
 */

FILE_DESCRIPTION(
/* description */ (''),
/* implementation_level */ '2;1');

FILE_NAME(
/* name */ 'tagBase.stp',
/* time_stamp */ '2026-08-22T21:35:38+10:00',
/* author */ ('PPSHS VR'),
/* organization */ (''),
/* preprocessor_version */ 'ST-DEVELOPER v20',
/* originating_system */ 'Autodesk Inventor 2025',
/* authorisation */ '');

FILE_SCHEMA (('AUTOMOTIVE_DESIGN { 1 0 10303 214 3 1 1 }'));
ENDSEC;

DATA;
#10=MECHANICAL_DESIGN_GEOMETRIC_PRESENTATION_REPRESENTATION('',(#16),#731);
#11=GEOMETRICALLY_BOUNDED_WIREFRAME_SHAPE_REPRESENTATION('',(#12),#730);
#12=GEOMETRIC_CURVE_SET('Sketch9',(#727));
#13=SHAPE_REPRESENTATION_RELATIONSHIP('SRR','None',#738,#15);
#14=SHAPE_REPRESENTATION_RELATIONSHIP('SRR','None',#738,#11);
#15=ADVANCED_BREP_SHAPE_REPRESENTATION('',(#17),#730);
#16=STYLED_ITEM('',(#747),#17);
#17=MANIFOLD_SOLID_BREP('Solid1',#377);
#18=CONICAL_SURFACE('',#437,39.,0.785398163397449);
#19=FACE_BOUND('',#116,.T.);
#20=FACE_BOUND('',#119,.T.);
#21=FACE_BOUND('',#128,.T.);
#22=SPHERICAL_SURFACE('',#422,15.);
#23=PLANE('',#412);
#24=PLANE('',#413);
#25=PLANE('',#427);
#26=PLANE('',#429);
#27=PLANE('',#430);
#28=PLANE('',#432);
#29=PLANE('',#433);
#30=PLANE('',#434);
#31=PLANE('',#436);
#32=PLANE('',#443);
#33=LINE('',#602,#58);
#34=LINE('',#605,#59);
#35=LINE('',#626,#60);
#36=LINE('',#630,#61);
#37=LINE('',#652,#62);
#38=LINE('',#654,#63);
#39=LINE('',#655,#64);
#40=LINE('',#658,#65);
#41=LINE('',#659,#66);
#42=LINE('',#670,#67);
#43=LINE('',#688,#68);
#44=LINE('',#690,#69);
#45=LINE('',#692,#70);
#46=LINE('',#693,#71);
#47=LINE('',#698,#72);
#48=LINE('',#699,#73);
#49=LINE('',#702,#74);
#50=LINE('',#704,#75);
#51=LINE('',#705,#76);
#52=LINE('',#707,#77);
#53=LINE('',#709,#78);
#54=LINE('',#710,#79);
#55=LINE('',#713,#80);
#56=LINE('',#717,#81);
#57=LINE('',#723,#82);
#58=VECTOR('',#454,10.);
#59=VECTOR('',#457,10.);
#60=VECTOR('',#462,10.);
#61=VECTOR('',#465,10.);
#62=VECTOR('',#476,10.);
#63=VECTOR('',#477,10.);
#64=VECTOR('',#478,10.);
#65=VECTOR('',#481,10.);
#66=VECTOR('',#482,10.);
#67=VECTOR('',#495,10.);
#68=VECTOR('',#516,10.);
#69=VECTOR('',#517,10.);
#70=VECTOR('',#518,10.);
#71=VECTOR('',#519,10.);
#72=VECTOR('',#524,10.);
#73=VECTOR('',#525,10.);
#74=VECTOR('',#528,10.);
#75=VECTOR('',#529,10.);
#76=VECTOR('',#530,10.);
#77=VECTOR('',#533,10.);
#78=VECTOR('',#534,10.);
#79=VECTOR('',#535,10.);
#80=VECTOR('',#540,10.);
#81=VECTOR('',#545,39.);
#82=VECTOR('',#552,40.);
#83=CYLINDRICAL_SURFACE('',#403,1.);
#84=CYLINDRICAL_SURFACE('',#406,1.);
#85=CYLINDRICAL_SURFACE('',#419,10.);
#86=CYLINDRICAL_SURFACE('',#440,40.);
#87=FACE_OUTER_BOUND('',#107,.T.);
#88=FACE_OUTER_BOUND('',#108,.T.);
#89=FACE_OUTER_BOUND('',#109,.T.);
#90=FACE_OUTER_BOUND('',#110,.T.);
#91=FACE_OUTER_BOUND('',#111,.T.);
#92=FACE_OUTER_BOUND('',#112,.T.);
#93=FACE_OUTER_BOUND('',#113,.T.);
#94=FACE_OUTER_BOUND('',#114,.T.);
#95=FACE_OUTER_BOUND('',#115,.T.);
#96=FACE_OUTER_BOUND('',#117,.T.);
#97=FACE_OUTER_BOUND('',#118,.T.);
#98=FACE_OUTER_BOUND('',#120,.T.);
#99=FACE_OUTER_BOUND('',#121,.T.);
#100=FACE_OUTER_BOUND('',#122,.T.);
#101=FACE_OUTER_BOUND('',#123,.T.);
#102=FACE_OUTER_BOUND('',#124,.T.);
#103=FACE_OUTER_BOUND('',#125,.T.);
#104=FACE_OUTER_BOUND('',#126,.T.);
#105=FACE_OUTER_BOUND('',#127,.T.);
#106=FACE_OUTER_BOUND('',#129,.T.);
#107=EDGE_LOOP('',(#247,#248,#249,#250));
#108=EDGE_LOOP('',(#251,#252,#253,#254,#255,#256));
#109=EDGE_LOOP('',(#257,#258,#259,#260,#261,#262));
#110=EDGE_LOOP('',(#263,#264,#265,#266));
#111=EDGE_LOOP('',(#267,#268,#269,#270));
#112=EDGE_LOOP('',(#271,#272,#273,#274,#275,#276));
#113=EDGE_LOOP('',(#277,#278,#279,#280,#281));
#114=EDGE_LOOP('',(#282,#283,#284,#285,#286,#287));
#115=EDGE_LOOP('',(#288,#289));
#116=EDGE_LOOP('',(#290));
#117=EDGE_LOOP('',(#291,#292,#293,#294,#295));
#118=EDGE_LOOP('',(#296));
#119=EDGE_LOOP('',(#297));
#120=EDGE_LOOP('',(#298,#299,#300,#301));
#121=EDGE_LOOP('',(#302,#303,#304,#305));
#122=EDGE_LOOP('',(#306,#307,#308,#309));
#123=EDGE_LOOP('',(#310,#311,#312,#313,#314,#315,#316,#317));
#124=EDGE_LOOP('',(#318,#319,#320,#321,#322,#323,#324,#325,#326,#327));
#125=EDGE_LOOP('',(#328,#329,#330,#331));
#126=EDGE_LOOP('',(#332,#333,#334,#335,#336));
#127=EDGE_LOOP('',(#337,#338,#339,#340,#341,#342,#343,#344,#345));
#128=EDGE_LOOP('',(#346,#347,#348,#349));
#129=EDGE_LOOP('',(#350,#351,#352));
#130=B_SPLINE_CURVE_WITH_KNOTS('',3,(#565,#566,#567,#568,#569,#570,#571,
#572,#573,#574,#575,#576,#577,#578,#579,#580),.UNSPECIFIED.,.F.,.F.,(4,
2,2,2,2,2,2,4),(-0.451137383432712,-0.450357491230551,-0.395967052452879,
-0.344105869123872,-0.290549597713308,-0.250455013885906,-0.215646332625408,
-0.214809080013132),.UNSPECIFIED.);
#131=B_SPLINE_CURVE_WITH_KNOTS('',3,(#583,#584,#585,#586,#587,#588,#589,
#590,#591,#592,#593,#594,#595,#596,#597,#598),.UNSPECIFIED.,.F.,.F.,(4,
2,2,2,2,2,2,4),(-0.000636444521944121,0.,0.044386258410741,0.0867084741615112,
0.130413995863337,0.16313387455239,0.191540101016024,0.192223355493452),
 .UNSPECIFIED.);
#132=B_SPLINE_CURVE_WITH_KNOTS('',3,(#607,#608,#609,#610,#611,#612,#613,
#614,#615,#616,#617,#618,#619,#620,#621,#622),.UNSPECIFIED.,.F.,.F.,(4,
2,2,2,2,2,2,4),(-0.00063629161182863,0.,0.0443880917520835,0.0867136313135508,
0.130416439383586,0.163135208632549,0.191541218301758,0.192223502455321),
 .UNSPECIFIED.);
#133=B_SPLINE_CURVE_WITH_KNOTS('',3,(#633,#634,#635,#636,#637,#638,#639,
#640,#641,#642,#643,#644,#645,#646),.UNSPECIFIED.,.F.,.F.,(4,2,2,2,2,2,
4),(0.,0.0281093129105642,0.0603400926597847,0.103280418588367,0.145775639148313,
0.190402516249363,0.191032752634488),.UNSPECIFIED.);
#134=CIRCLE('',#401,40.);
#135=CIRCLE('',#402,39.);
#136=CIRCLE('',#404,1.);
#137=CIRCLE('',#405,1.);
#138=CIRCLE('',#407,1.);
#139=CIRCLE('',#408,1.);
#140=CIRCLE('',#410,40.);
#141=CIRCLE('',#411,39.);
#142=CIRCLE('',#415,10.5882352941176);
#143=CIRCLE('',#416,2.);
#144=CIRCLE('',#417,10.);
#145=CIRCLE('',#418,10.);
#146=CIRCLE('',#420,10.);
#147=CIRCLE('',#421,10.);
#148=CIRCLE('',#423,15.);
#149=CIRCLE('',#425,2.);
#150=CIRCLE('',#426,12.);
#151=CIRCLE('',#428,38.);
#152=CIRCLE('',#431,40.);
#153=CIRCLE('',#435,40.);
#154=CIRCLE('',#438,40.);
#155=CIRCLE('',#439,40.);
#156=CIRCLE('',#441,40.);
#157=CIRCLE('',#442,40.);
#158=VERTEX_POINT('',#561);
#159=VERTEX_POINT('',#562);
#160=VERTEX_POINT('',#564);
#161=VERTEX_POINT('',#581);
#162=VERTEX_POINT('',#600);
#163=VERTEX_POINT('',#601);
#164=VERTEX_POINT('',#604);
#165=VERTEX_POINT('',#606);
#166=VERTEX_POINT('',#625);
#167=VERTEX_POINT('',#627);
#168=VERTEX_POINT('',#629);
#169=VERTEX_POINT('',#631);
#170=VERTEX_POINT('',#651);
#171=VERTEX_POINT('',#653);
#172=VERTEX_POINT('',#657);
#173=VERTEX_POINT('',#661);
#174=VERTEX_POINT('',#663);
#175=VERTEX_POINT('',#665);
#176=VERTEX_POINT('',#669);
#177=VERTEX_POINT('',#671);
#178=VERTEX_POINT('',#675);
#179=VERTEX_POINT('',#676);
#180=VERTEX_POINT('',#679);
#181=VERTEX_POINT('',#683);
#182=VERTEX_POINT('',#686);
#183=VERTEX_POINT('',#687);
#184=VERTEX_POINT('',#689);
#185=VERTEX_POINT('',#691);
#186=VERTEX_POINT('',#695);
#187=VERTEX_POINT('',#697);
#188=VERTEX_POINT('',#701);
#189=VERTEX_POINT('',#703);
#190=VERTEX_POINT('',#708);
#191=VERTEX_POINT('',#716);
#192=VERTEX_POINT('',#718);
#193=VERTEX_POINT('',#722);
#194=EDGE_CURVE('',#158,#159,#134,.T.);
#195=EDGE_CURVE('',#159,#160,#130,.T.);
#196=EDGE_CURVE('',#160,#161,#135,.T.);
#197=EDGE_CURVE('',#158,#161,#131,.T.);
#198=EDGE_CURVE('',#162,#163,#33,.T.);
#199=EDGE_CURVE('',#163,#160,#136,.T.);
#200=EDGE_CURVE('',#159,#164,#34,.T.);
#201=EDGE_CURVE('',#164,#165,#132,.T.);
#202=EDGE_CURVE('',#165,#162,#137,.T.);
#203=EDGE_CURVE('',#166,#158,#35,.T.);
#204=EDGE_CURVE('',#161,#167,#138,.T.);
#205=EDGE_CURVE('',#167,#168,#36,.T.);
#206=EDGE_CURVE('',#168,#169,#139,.T.);
#207=EDGE_CURVE('',#169,#166,#133,.T.);
#208=EDGE_CURVE('',#164,#166,#140,.T.);
#209=EDGE_CURVE('',#165,#169,#141,.T.);
#210=EDGE_CURVE('',#162,#170,#37,.T.);
#211=EDGE_CURVE('',#170,#171,#38,.T.);
#212=EDGE_CURVE('',#163,#171,#39,.T.);
#213=EDGE_CURVE('',#168,#172,#40,.T.);
#214=EDGE_CURVE('',#172,#170,#41,.T.);
#215=EDGE_CURVE('',#173,#173,#142,.T.);
#216=EDGE_CURVE('',#173,#174,#143,.T.);
#217=EDGE_CURVE('',#174,#175,#144,.T.);
#218=EDGE_CURVE('',#175,#174,#145,.T.);
#219=EDGE_CURVE('',#175,#176,#42,.T.);
#220=EDGE_CURVE('',#177,#176,#146,.T.);
#221=EDGE_CURVE('',#176,#177,#147,.T.);
#222=EDGE_CURVE('',#178,#179,#148,.T.);
#223=EDGE_CURVE('',#177,#180,#149,.T.);
#224=EDGE_CURVE('',#180,#180,#150,.T.);
#225=EDGE_CURVE('',#181,#181,#151,.T.);
#226=EDGE_CURVE('',#182,#183,#43,.T.);
#227=EDGE_CURVE('',#182,#184,#44,.T.);
#228=EDGE_CURVE('',#185,#184,#45,.T.);
#229=EDGE_CURVE('',#183,#185,#46,.T.);
#230=EDGE_CURVE('',#183,#186,#152,.T.);
#231=EDGE_CURVE('',#187,#185,#47,.T.);
#232=EDGE_CURVE('',#186,#187,#48,.T.);
#233=EDGE_CURVE('',#186,#188,#49,.T.);
#234=EDGE_CURVE('',#189,#187,#50,.T.);
#235=EDGE_CURVE('',#188,#189,#51,.T.);
#236=EDGE_CURVE('',#171,#184,#52,.T.);
#237=EDGE_CURVE('',#190,#172,#53,.T.);
#238=EDGE_CURVE('',#189,#190,#54,.T.);
#239=EDGE_CURVE('',#188,#182,#153,.T.);
#240=EDGE_CURVE('',#167,#190,#55,.T.);
#241=EDGE_CURVE('',#181,#191,#56,.T.);
#242=EDGE_CURVE('',#191,#192,#154,.T.);
#243=EDGE_CURVE('',#192,#191,#155,.T.);
#244=EDGE_CURVE('',#192,#193,#57,.T.);
#245=EDGE_CURVE('',#193,#158,#156,.T.);
#246=EDGE_CURVE('',#159,#193,#157,.T.);
#247=ORIENTED_EDGE('',*,*,#194,.T.);
#248=ORIENTED_EDGE('',*,*,#195,.T.);
#249=ORIENTED_EDGE('',*,*,#196,.T.);
#250=ORIENTED_EDGE('',*,*,#197,.F.);
#251=ORIENTED_EDGE('',*,*,#198,.T.);
#252=ORIENTED_EDGE('',*,*,#199,.T.);
#253=ORIENTED_EDGE('',*,*,#195,.F.);
#254=ORIENTED_EDGE('',*,*,#200,.T.);
#255=ORIENTED_EDGE('',*,*,#201,.T.);
#256=ORIENTED_EDGE('',*,*,#202,.T.);
#257=ORIENTED_EDGE('',*,*,#203,.T.);
#258=ORIENTED_EDGE('',*,*,#197,.T.);
#259=ORIENTED_EDGE('',*,*,#204,.T.);
#260=ORIENTED_EDGE('',*,*,#205,.T.);
#261=ORIENTED_EDGE('',*,*,#206,.T.);
#262=ORIENTED_EDGE('',*,*,#207,.T.);
#263=ORIENTED_EDGE('',*,*,#208,.T.);
#264=ORIENTED_EDGE('',*,*,#207,.F.);
#265=ORIENTED_EDGE('',*,*,#209,.F.);
#266=ORIENTED_EDGE('',*,*,#201,.F.);
#267=ORIENTED_EDGE('',*,*,#198,.F.);
#268=ORIENTED_EDGE('',*,*,#210,.T.);
#269=ORIENTED_EDGE('',*,*,#211,.T.);
#270=ORIENTED_EDGE('',*,*,#212,.F.);
#271=ORIENTED_EDGE('',*,*,#209,.T.);
#272=ORIENTED_EDGE('',*,*,#206,.F.);
#273=ORIENTED_EDGE('',*,*,#213,.T.);
#274=ORIENTED_EDGE('',*,*,#214,.T.);
#275=ORIENTED_EDGE('',*,*,#210,.F.);
#276=ORIENTED_EDGE('',*,*,#202,.F.);
#277=ORIENTED_EDGE('',*,*,#215,.T.);
#278=ORIENTED_EDGE('',*,*,#216,.T.);
#279=ORIENTED_EDGE('',*,*,#217,.T.);
#280=ORIENTED_EDGE('',*,*,#218,.T.);
#281=ORIENTED_EDGE('',*,*,#216,.F.);
#282=ORIENTED_EDGE('',*,*,#218,.F.);
#283=ORIENTED_EDGE('',*,*,#219,.T.);
#284=ORIENTED_EDGE('',*,*,#220,.F.);
#285=ORIENTED_EDGE('',*,*,#221,.F.);
#286=ORIENTED_EDGE('',*,*,#219,.F.);
#287=ORIENTED_EDGE('',*,*,#217,.F.);
#288=ORIENTED_EDGE('',*,*,#222,.T.);
#289=ORIENTED_EDGE('',*,*,#222,.F.);
#290=ORIENTED_EDGE('',*,*,#215,.F.);
#291=ORIENTED_EDGE('',*,*,#220,.T.);
#292=ORIENTED_EDGE('',*,*,#221,.T.);
#293=ORIENTED_EDGE('',*,*,#223,.T.);
#294=ORIENTED_EDGE('',*,*,#224,.T.);
#295=ORIENTED_EDGE('',*,*,#223,.F.);
#296=ORIENTED_EDGE('',*,*,#225,.F.);
#297=ORIENTED_EDGE('',*,*,#224,.F.);
#298=ORIENTED_EDGE('',*,*,#226,.F.);
#299=ORIENTED_EDGE('',*,*,#227,.T.);
#300=ORIENTED_EDGE('',*,*,#228,.F.);
#301=ORIENTED_EDGE('',*,*,#229,.F.);
#302=ORIENTED_EDGE('',*,*,#230,.F.);
#303=ORIENTED_EDGE('',*,*,#229,.T.);
#304=ORIENTED_EDGE('',*,*,#231,.F.);
#305=ORIENTED_EDGE('',*,*,#232,.F.);
#306=ORIENTED_EDGE('',*,*,#233,.F.);
#307=ORIENTED_EDGE('',*,*,#232,.T.);
#308=ORIENTED_EDGE('',*,*,#234,.F.);
#309=ORIENTED_EDGE('',*,*,#235,.F.);
#310=ORIENTED_EDGE('',*,*,#234,.T.);
#311=ORIENTED_EDGE('',*,*,#231,.T.);
#312=ORIENTED_EDGE('',*,*,#228,.T.);
#313=ORIENTED_EDGE('',*,*,#236,.F.);
#314=ORIENTED_EDGE('',*,*,#211,.F.);
#315=ORIENTED_EDGE('',*,*,#214,.F.);
#316=ORIENTED_EDGE('',*,*,#237,.F.);
#317=ORIENTED_EDGE('',*,*,#238,.F.);
#318=ORIENTED_EDGE('',*,*,#196,.F.);
#319=ORIENTED_EDGE('',*,*,#199,.F.);
#320=ORIENTED_EDGE('',*,*,#212,.T.);
#321=ORIENTED_EDGE('',*,*,#236,.T.);
#322=ORIENTED_EDGE('',*,*,#227,.F.);
#323=ORIENTED_EDGE('',*,*,#239,.F.);
#324=ORIENTED_EDGE('',*,*,#235,.T.);
#325=ORIENTED_EDGE('',*,*,#238,.T.);
#326=ORIENTED_EDGE('',*,*,#240,.F.);
#327=ORIENTED_EDGE('',*,*,#204,.F.);
#328=ORIENTED_EDGE('',*,*,#205,.F.);
#329=ORIENTED_EDGE('',*,*,#240,.T.);
#330=ORIENTED_EDGE('',*,*,#237,.T.);
#331=ORIENTED_EDGE('',*,*,#213,.F.);
#332=ORIENTED_EDGE('',*,*,#225,.T.);
#333=ORIENTED_EDGE('',*,*,#241,.T.);
#334=ORIENTED_EDGE('',*,*,#242,.T.);
#335=ORIENTED_EDGE('',*,*,#243,.T.);
#336=ORIENTED_EDGE('',*,*,#241,.F.);
#337=ORIENTED_EDGE('',*,*,#242,.F.);
#338=ORIENTED_EDGE('',*,*,#243,.F.);
#339=ORIENTED_EDGE('',*,*,#244,.T.);
#340=ORIENTED_EDGE('',*,*,#245,.T.);
#341=ORIENTED_EDGE('',*,*,#203,.F.);
#342=ORIENTED_EDGE('',*,*,#208,.F.);
#343=ORIENTED_EDGE('',*,*,#200,.F.);
#344=ORIENTED_EDGE('',*,*,#246,.T.);
#345=ORIENTED_EDGE('',*,*,#244,.F.);
#346=ORIENTED_EDGE('',*,*,#230,.T.);
#347=ORIENTED_EDGE('',*,*,#233,.T.);
#348=ORIENTED_EDGE('',*,*,#239,.T.);
#349=ORIENTED_EDGE('',*,*,#226,.T.);
#350=ORIENTED_EDGE('',*,*,#246,.F.);
#351=ORIENTED_EDGE('',*,*,#194,.F.);
#352=ORIENTED_EDGE('',*,*,#245,.F.);
#353=TOROIDAL_SURFACE('',#400,39.,1.);
#354=TOROIDAL_SURFACE('',#409,39.,1.);
#355=TOROIDAL_SURFACE('',#414,12.,2.);
#356=TOROIDAL_SURFACE('',#424,12.,2.);
#357=ADVANCED_FACE('',(#87),#353,.T.);
#358=ADVANCED_FACE('',(#88),#83,.T.);
#359=ADVANCED_FACE('',(#89),#84,.T.);
#360=ADVANCED_FACE('',(#90),#354,.T.);
#361=ADVANCED_FACE('',(#91),#23,.F.);
#362=ADVANCED_FACE('',(#92),#24,.F.);
#363=ADVANCED_FACE('',(#93),#355,.F.);
#364=ADVANCED_FACE('',(#94),#85,.T.);
#365=ADVANCED_FACE('',(#95,#19),#22,.T.);
#366=ADVANCED_FACE('',(#96),#356,.F.);
#367=ADVANCED_FACE('',(#97,#20),#25,.T.);
#368=ADVANCED_FACE('',(#98),#26,.F.);
#369=ADVANCED_FACE('',(#99),#27,.F.);
#370=ADVANCED_FACE('',(#100),#28,.F.);
#371=ADVANCED_FACE('',(#101),#29,.F.);
#372=ADVANCED_FACE('',(#102),#30,.F.);
#373=ADVANCED_FACE('',(#103),#31,.F.);
#374=ADVANCED_FACE('',(#104),#18,.T.);
#375=ADVANCED_FACE('',(#105,#21),#86,.T.);
#376=ADVANCED_FACE('',(#106),#32,.F.);
#377=CLOSED_SHELL('',(#357,#358,#359,#360,#361,#362,#363,#364,#365,#366,
#367,#368,#369,#370,#371,#372,#373,#374,#375,#376));
#378=DERIVED_UNIT_ELEMENT(#381,1.);
#379=DERIVED_UNIT_ELEMENT(#733,-3.);
#380=DIMENSIONAL_EXPONENTS(0.,1.,0.,0.,0.,0.,0.);
#381=(
CONVERSION_BASED_UNIT('gram',#383)
MASS_UNIT()
NAMED_UNIT(#380)
);
#382=(
MASS_UNIT()
NAMED_UNIT(*)
SI_UNIT(.KILO.,.GRAM.)
);
#383=MASS_MEASURE_WITH_UNIT(MASS_MEASURE(0.001),#382);
#384=DERIVED_UNIT((#378,#379));
#385=MEASURE_REPRESENTATION_ITEM('density measure',
POSITIVE_RATIO_MEASURE(1.),#384);
#386=PROPERTY_DEFINITION_REPRESENTATION(#391,#388);
#387=PROPERTY_DEFINITION_REPRESENTATION(#392,#389);
#388=REPRESENTATION('material name',(#390),#730);
#389=REPRESENTATION('density',(#385),#730);
#390=DESCRIPTIVE_REPRESENTATION_ITEM('Generic','Generic');
#391=PROPERTY_DEFINITION('material property','material name',#740);
#392=PROPERTY_DEFINITION('material property','density of part',#740);
#393=DATE_TIME_ROLE('creation_date');
#394=APPLIED_DATE_AND_TIME_ASSIGNMENT(#395,#393,(#740));
#395=DATE_AND_TIME(#396,#397);
#396=CALENDAR_DATE(2026,22,8);
#397=LOCAL_TIME(0,0,0.,#398);
#398=COORDINATED_UNIVERSAL_TIME_OFFSET(0,0,.BEHIND.);
#399=AXIS2_PLACEMENT_3D('',#559,#444,#445);
#400=AXIS2_PLACEMENT_3D('',#560,#446,#447);
#401=AXIS2_PLACEMENT_3D('',#563,#448,#449);
#402=AXIS2_PLACEMENT_3D('',#582,#450,#451);
#403=AXIS2_PLACEMENT_3D('',#599,#452,#453);
#404=AXIS2_PLACEMENT_3D('',#603,#455,#456);
#405=AXIS2_PLACEMENT_3D('',#623,#458,#459);
#406=AXIS2_PLACEMENT_3D('',#624,#460,#461);
#407=AXIS2_PLACEMENT_3D('',#628,#463,#464);
#408=AXIS2_PLACEMENT_3D('',#632,#466,#467);
#409=AXIS2_PLACEMENT_3D('',#647,#468,#469);
#410=AXIS2_PLACEMENT_3D('',#648,#470,#471);
#411=AXIS2_PLACEMENT_3D('',#649,#472,#473);
#412=AXIS2_PLACEMENT_3D('',#650,#474,#475);
#413=AXIS2_PLACEMENT_3D('',#656,#479,#480);
#414=AXIS2_PLACEMENT_3D('',#660,#483,#484);
#415=AXIS2_PLACEMENT_3D('',#662,#485,#486);
#416=AXIS2_PLACEMENT_3D('',#664,#487,#488);
#417=AXIS2_PLACEMENT_3D('',#666,#489,#490);
#418=AXIS2_PLACEMENT_3D('',#667,#491,#492);
#419=AXIS2_PLACEMENT_3D('',#668,#493,#494);
#420=AXIS2_PLACEMENT_3D('',#672,#496,#497);
#421=AXIS2_PLACEMENT_3D('',#673,#498,#499);
#422=AXIS2_PLACEMENT_3D('',#674,#500,#501);
#423=AXIS2_PLACEMENT_3D('',#677,#502,#503);
#424=AXIS2_PLACEMENT_3D('',#678,#504,#505);
#425=AXIS2_PLACEMENT_3D('',#680,#506,#507);
#426=AXIS2_PLACEMENT_3D('',#681,#508,#509);
#427=AXIS2_PLACEMENT_3D('',#682,#510,#511);
#428=AXIS2_PLACEMENT_3D('',#684,#512,#513);
#429=AXIS2_PLACEMENT_3D('',#685,#514,#515);
#430=AXIS2_PLACEMENT_3D('',#694,#520,#521);
#431=AXIS2_PLACEMENT_3D('',#696,#522,#523);
#432=AXIS2_PLACEMENT_3D('',#700,#526,#527);
#433=AXIS2_PLACEMENT_3D('',#706,#531,#532);
#434=AXIS2_PLACEMENT_3D('',#711,#536,#537);
#435=AXIS2_PLACEMENT_3D('',#712,#538,#539);
#436=AXIS2_PLACEMENT_3D('',#714,#541,#542);
#437=AXIS2_PLACEMENT_3D('',#715,#543,#544);
#438=AXIS2_PLACEMENT_3D('',#719,#546,#547);
#439=AXIS2_PLACEMENT_3D('',#720,#548,#549);
#440=AXIS2_PLACEMENT_3D('',#721,#550,#551);
#441=AXIS2_PLACEMENT_3D('',#724,#553,#554);
#442=AXIS2_PLACEMENT_3D('',#725,#555,#556);
#443=AXIS2_PLACEMENT_3D('',#726,#557,#558);
#444=DIRECTION('axis',(0.,0.,1.));
#445=DIRECTION('refdir',(1.,0.,0.));
#446=DIRECTION('center_axis',(0.,0.,-1.));
#447=DIRECTION('ref_axis',(-1.,0.,0.));
#448=DIRECTION('center_axis',(0.,0.,1.));
#449=DIRECTION('ref_axis',(1.,0.,0.));
#450=DIRECTION('center_axis',(0.,0.,-1.));
#451=DIRECTION('ref_axis',(6.12323399573677E-17,1.,0.));
#452=DIRECTION('center_axis',(0.,0.,-1.));
#453=DIRECTION('ref_axis',(0.518874521662766,0.854850414265113,0.));
#454=DIRECTION('',(0.,0.,-1.));
#455=DIRECTION('center_axis',(0.,0.,1.));
#456=DIRECTION('ref_axis',(0.518874521662766,0.854850414265113,0.));
#457=DIRECTION('',(0.,0.,1.));
#458=DIRECTION('center_axis',(0.,0.,-1.));
#459=DIRECTION('ref_axis',(0.518874521662766,0.854850414265113,0.));
#460=DIRECTION('center_axis',(0.,0.,1.));
#461=DIRECTION('ref_axis',(-0.518874521662773,0.854850414265109,0.));
#462=DIRECTION('',(0.,0.,-1.));
#463=DIRECTION('center_axis',(0.,0.,1.));
#464=DIRECTION('ref_axis',(-0.518874521662773,0.854850414265109,0.));
#465=DIRECTION('',(0.,0.,1.));
#466=DIRECTION('center_axis',(0.,0.,-1.));
#467=DIRECTION('ref_axis',(-0.518874521662773,0.854850414265109,0.));
#468=DIRECTION('center_axis',(0.,0.,1.));
#469=DIRECTION('ref_axis',(1.,0.,0.));
#470=DIRECTION('center_axis',(0.,0.,-1.));
#471=DIRECTION('ref_axis',(6.12323399573677E-17,1.,0.));
#472=DIRECTION('center_axis',(0.,0.,-1.));
#473=DIRECTION('ref_axis',(6.12323399573677E-17,1.,0.));
#474=DIRECTION('center_axis',(-1.,0.,0.));
#475=DIRECTION('ref_axis',(0.,0.,-1.));
#476=DIRECTION('',(0.,-1.,0.));
#477=DIRECTION('',(0.,0.,-1.));
#478=DIRECTION('',(0.,-1.,0.));
#479=DIRECTION('center_axis',(0.,0.,1.));
#480=DIRECTION('ref_axis',(-1.,0.,0.));
#481=DIRECTION('',(0.,-1.,0.));
#482=DIRECTION('',(-1.,0.,0.));
#483=DIRECTION('center_axis',(0.,0.,-1.));
#484=DIRECTION('ref_axis',(-1.,0.,0.));
#485=DIRECTION('center_axis',(0.,0.,-1.));
#486=DIRECTION('ref_axis',(1.,0.,0.));
#487=DIRECTION('center_axis',(-1.22464679914735E-16,-1.,0.));
#488=DIRECTION('ref_axis',(1.,-1.22464679914735E-16,0.));
#489=DIRECTION('center_axis',(0.,0.,1.));
#490=DIRECTION('ref_axis',(1.,0.,0.));
#491=DIRECTION('center_axis',(0.,0.,1.));
#492=DIRECTION('ref_axis',(1.,0.,0.));
#493=DIRECTION('center_axis',(0.,0.,1.));
#494=DIRECTION('ref_axis',(1.,0.,0.));
#495=DIRECTION('',(0.,0.,-1.));
#496=DIRECTION('center_axis',(0.,0.,-1.));
#497=DIRECTION('ref_axis',(-1.,-1.22464679914735E-16,0.));
#498=DIRECTION('center_axis',(0.,0.,-1.));
#499=DIRECTION('ref_axis',(-1.,-1.22464679914735E-16,0.));
#500=DIRECTION('center_axis',(1.,-6.12323399573677E-17,0.));
#501=DIRECTION('ref_axis',(0.,-1.,0.));
#502=DIRECTION('center_axis',(0.,0.,1.));
#503=DIRECTION('ref_axis',(0.,1.,0.));
#504=DIRECTION('center_axis',(0.,0.,-1.));
#505=DIRECTION('ref_axis',(-1.,0.,0.));
#506=DIRECTION('center_axis',(-1.22464679914735E-16,-1.,0.));
#507=DIRECTION('ref_axis',(1.,-1.22464679914735E-16,0.));
#508=DIRECTION('center_axis',(0.,0.,1.));
#509=DIRECTION('ref_axis',(-1.,-1.22464679914735E-16,0.));
#510=DIRECTION('center_axis',(0.,0.,1.));
#511=DIRECTION('ref_axis',(1.,0.,0.));
#512=DIRECTION('center_axis',(0.,0.,-1.));
#513=DIRECTION('ref_axis',(-1.,0.,0.));
#514=DIRECTION('center_axis',(-1.,0.,0.));
#515=DIRECTION('ref_axis',(0.,0.,1.));
#516=DIRECTION('',(0.,0.,1.));
#517=DIRECTION('',(0.,1.,0.));
#518=DIRECTION('',(0.,0.,-1.));
#519=DIRECTION('',(0.,1.,0.));
#520=DIRECTION('center_axis',(0.,0.,1.));
#521=DIRECTION('ref_axis',(1.,0.,0.));
#522=DIRECTION('center_axis',(0.,0.,1.));
#523=DIRECTION('ref_axis',(1.,0.,0.));
#524=DIRECTION('',(-1.,0.,0.));
#525=DIRECTION('',(0.,1.,0.));
#526=DIRECTION('center_axis',(1.,0.,0.));
#527=DIRECTION('ref_axis',(0.,0.,-1.));
#528=DIRECTION('',(0.,0.,-1.));
#529=DIRECTION('',(0.,0.,1.));
#530=DIRECTION('',(0.,1.,0.));
#531=DIRECTION('center_axis',(0.,-1.,0.));
#532=DIRECTION('ref_axis',(0.,0.,-1.));
#533=DIRECTION('',(1.,0.,0.));
#534=DIRECTION('',(0.,0.,1.));
#535=DIRECTION('',(1.,0.,0.));
#536=DIRECTION('center_axis',(0.,0.,-1.));
#537=DIRECTION('ref_axis',(1.,0.,0.));
#538=DIRECTION('center_axis',(0.,0.,-1.));
#539=DIRECTION('ref_axis',(1.,0.,0.));
#540=DIRECTION('',(0.,-1.,0.));
#541=DIRECTION('center_axis',(1.,0.,0.));
#542=DIRECTION('ref_axis',(0.,0.,1.));
#543=DIRECTION('center_axis',(0.,0.,-1.));
#544=DIRECTION('ref_axis',(-1.,0.,0.));
#545=DIRECTION('',(0.707106781186548,8.65956056235494E-17,-0.707106781186547));
#546=DIRECTION('center_axis',(0.,0.,1.));
#547=DIRECTION('ref_axis',(-1.,0.,0.));
#548=DIRECTION('center_axis',(0.,0.,1.));
#549=DIRECTION('ref_axis',(-1.,0.,0.));
#550=DIRECTION('center_axis',(0.,0.,1.));
#551=DIRECTION('ref_axis',(1.,0.,0.));
#552=DIRECTION('',(0.,0.,-1.));
#553=DIRECTION('center_axis',(0.,0.,1.));
#554=DIRECTION('ref_axis',(1.,0.,0.));
#555=DIRECTION('center_axis',(0.,0.,1.));
#556=DIRECTION('ref_axis',(1.,0.,0.));
#557=DIRECTION('center_axis',(0.,0.,1.));
#558=DIRECTION('ref_axis',(1.,0.,0.));
#559=CARTESIAN_POINT('',(0.,0.,0.));
#560=CARTESIAN_POINT('Origin',(0.,0.,0.));
#561=CARTESIAN_POINT('',(18.4615384615385,35.4848079836024,0.));
#562=CARTESIAN_POINT('',(-18.4615384615385,35.4848079836024,0.));
#563=CARTESIAN_POINT('Origin',(0.,0.,0.));
#564=CARTESIAN_POINT('',(-17.107035549642,35.0478149775886,1.));
#565=CARTESIAN_POINT('Ctrl Pts',(-18.4615384615385,35.4848079836024,0.));
#566=CARTESIAN_POINT('Ctrl Pts',(-18.4601992838152,35.4855047122153,0.0014905894944703));
#567=CARTESIAN_POINT('Ctrl Pts',(-18.4588585268945,35.4861984092421,0.00298118071163239));
#568=CARTESIAN_POINT('Ctrl Pts',(-18.3639010954712,35.5350563720075,0.108426400385469));
#569=CARTESIAN_POINT('Ctrl Pts',(-18.2621145911233,35.5687305901773,0.212937170061287));
#570=CARTESIAN_POINT('Ctrl Pts',(-18.0540264264748,35.6015069988595,0.410538123845844));
#571=CARTESIAN_POINT('Ctrl Pts',(-17.9469316782008,35.602321845084,0.505090573478368));
#572=CARTESIAN_POINT('Ctrl Pts',(-17.7262236568304,35.566169405775,0.683370534453136));
#573=CARTESIAN_POINT('Ctrl Pts',(-17.6110272330772,35.5276720518514,0.767830132881983));
#574=CARTESIAN_POINT('Ctrl Pts',(-17.4183470592238,35.4166767530156,0.888677019140537));
#575=CARTESIAN_POINT('Ctrl Pts',(-17.3390095280943,35.3552795005253,0.93155908275529));
#576=CARTESIAN_POINT('Ctrl Pts',(-17.2064037389804,35.2128182096675,0.985550326664236));
#577=CARTESIAN_POINT('Ctrl Pts',(-17.1528825134244,35.1373062738152,0.999342949677744));
#578=CARTESIAN_POINT('Ctrl Pts',(-17.1090715409306,35.051837065414,0.999992384514264));
#579=CARTESIAN_POINT('Ctrl Pts',(-17.1080498685547,35.0498271882333,1.));
#580=CARTESIAN_POINT('Ctrl Pts',(-17.1070355496419,35.0478149775884,1.));
#581=CARTESIAN_POINT('',(17.107035549642,35.0478149775886,1.));
#582=CARTESIAN_POINT('Origin',(0.,0.,1.));
#583=CARTESIAN_POINT('Ctrl Pts',(18.4615384615385,35.4848079836024,0.));
#584=CARTESIAN_POINT('Ctrl Pts',(18.4601992838157,35.4855047122151,0.00149058949396574));
#585=CARTESIAN_POINT('Ctrl Pts',(18.4588585268949,35.4861984092419,0.00298118071122385));
#586=CARTESIAN_POINT('Ctrl Pts',(18.3639010954726,35.5350563720069,0.108426400383511));
#587=CARTESIAN_POINT('Ctrl Pts',(18.2621145911256,35.5687305901766,0.212937170058936));
#588=CARTESIAN_POINT('Ctrl Pts',(18.0540264264787,35.6015069988592,0.410538123842301));
#589=CARTESIAN_POINT('Ctrl Pts',(17.9469316782053,35.6023218450842,0.50509057347438));
#590=CARTESIAN_POINT('Ctrl Pts',(17.7262236568352,35.5661694057765,0.683370534449516));
#591=CARTESIAN_POINT('Ctrl Pts',(17.6110272330815,35.5276720518532,0.767830132879011));
#592=CARTESIAN_POINT('Ctrl Pts',(17.4183470592272,35.4166767530181,0.888677019138614));
#593=CARTESIAN_POINT('Ctrl Pts',(17.3390095280973,35.3552795005279,0.931559082753824));
#594=CARTESIAN_POINT('Ctrl Pts',(17.2064037389827,35.2128182096705,0.985550326663511));
#595=CARTESIAN_POINT('Ctrl Pts',(17.1528825134264,35.1373062738184,0.999342949677372));
#596=CARTESIAN_POINT('Ctrl Pts',(17.1090715409317,35.0518370654162,0.999992384514256));
#597=CARTESIAN_POINT('Ctrl Pts',(17.1080498685553,35.0498271882344,1.));
#598=CARTESIAN_POINT('Ctrl Pts',(17.1070355496419,35.0478149775884,1.));
#599=CARTESIAN_POINT('Origin',(-18.,34.5976877840124,0.));
#600=CARTESIAN_POINT('',(-17.,34.5976877840124,5.5));
#601=CARTESIAN_POINT('',(-17.,34.5976877840124,1.));
#602=CARTESIAN_POINT('',(-17.,34.5976877840124,0.));
#603=CARTESIAN_POINT('Origin',(-18.,34.5976877840124,1.));
#604=CARTESIAN_POINT('',(-18.4615384615385,35.4848079836024,6.5));
#605=CARTESIAN_POINT('',(-18.4615384615385,35.4848079836024,0.));
#606=CARTESIAN_POINT('',(-17.107035549642,35.0478149775886,5.5));
#607=CARTESIAN_POINT('Ctrl Pts',(-18.4615384615385,35.4848079836024,6.5));
#608=CARTESIAN_POINT('Ctrl Pts',(-18.4601996055622,35.4855045448213,6.49850976863028));
#609=CARTESIAN_POINT('Ctrl Pts',(-18.458859171147,35.4861980759107,6.49701953553786));
#610=CARTESIAN_POINT('Ctrl Pts',(-18.3638982489058,35.5350579654663,6.39157037997117));
#611=CARTESIAN_POINT('Ctrl Pts',(-18.2621072252531,35.5687330940245,6.28705523699541));
#612=CARTESIAN_POINT('Ctrl Pts',(-18.054005916254,35.6015089481185,6.08944297016955));
#613=CARTESIAN_POINT('Ctrl Pts',(-17.9469019659785,35.6023213457712,5.99488351069563));
#614=CARTESIAN_POINT('Ctrl Pts',(-17.7261915205442,35.5661596304695,5.81660548540259));
#615=CARTESIAN_POINT('Ctrl Pts',(-17.6110025686486,35.5276607731852,5.73215311206695));
#616=CARTESIAN_POINT('Ctrl Pts',(-17.4183329485013,35.4166664307623,5.61131509357272));
#617=CARTESIAN_POINT('Ctrl Pts',(-17.3389987795412,35.3552696776813,5.5684357746704));
#618=CARTESIAN_POINT('Ctrl Pts',(-17.2063970943958,35.2128095738297,5.51444763326713));
#619=CARTESIAN_POINT('Ctrl Pts',(-17.1528770171306,35.1372975248054,5.50065608089679));
#620=CARTESIAN_POINT('Ctrl Pts',(-17.1090686426461,35.0518313637526,5.50000759389706));
#621=CARTESIAN_POINT('Ctrl Pts',(-17.1080484298161,35.0498243340569,5.5));
#622=CARTESIAN_POINT('Ctrl Pts',(-17.1070355496419,35.0478149775884,5.5));
#623=CARTESIAN_POINT('Origin',(-18.,34.5976877840124,5.5));
#624=CARTESIAN_POINT('Origin',(18.,34.5976877840124,0.));
#625=CARTESIAN_POINT('',(18.4615384615385,35.4848079836024,6.5));
#626=CARTESIAN_POINT('',(18.4615384615385,35.4848079836024,0.));
#627=CARTESIAN_POINT('',(17.,34.5976877840124,1.));
#628=CARTESIAN_POINT('Origin',(18.,34.5976877840124,1.));
#629=CARTESIAN_POINT('',(17.,34.5976877840124,5.5));
#630=CARTESIAN_POINT('',(17.,34.5976877840124,0.));
#631=CARTESIAN_POINT('',(17.107035549642,35.0478149775886,5.5));
#632=CARTESIAN_POINT('Origin',(18.,34.5976877840124,5.5));
#633=CARTESIAN_POINT('Ctrl Pts',(17.107035549642,35.0478149775886,5.5));
#634=CARTESIAN_POINT('Ctrl Pts',(17.1492114367546,35.1314837014324,5.5));
#635=CARTESIAN_POINT('Ctrl Pts',(17.2021921956064,35.207354551952,5.51315223797277));
#636=CARTESIAN_POINT('Ctrl Pts',(17.3335875523669,35.3504582229654,5.56578731454693));
#637=CARTESIAN_POINT('Ctrl Pts',(17.4121861492495,35.4122338201305,5.60785130087079));
#638=CARTESIAN_POINT('Ctrl Pts',(17.6031478463202,35.524241306227,5.72674152626455));
#639=CARTESIAN_POINT('Ctrl Pts',(17.7173577381707,35.5635461567641,5.8099813599737));
#640=CARTESIAN_POINT('Ctrl Pts',(17.9388630985548,35.6020622043326,5.98792624575465));
#641=CARTESIAN_POINT('Ctrl Pts',(18.0476364915656,35.6019837277019,6.08362983806876));
#642=CARTESIAN_POINT('Ctrl Pts',(18.2590353059096,35.5697470170061,6.2839021479169));
#643=CARTESIAN_POINT('Ctrl Pts',(18.3624903099826,35.5357823870353,6.39000693714245));
#644=CARTESIAN_POINT('Ctrl Pts',(18.4588591711469,35.4861980759108,6.49701953553916));
#645=CARTESIAN_POINT('Ctrl Pts',(18.460199605562,35.4855045448214,6.49850976863004));
#646=CARTESIAN_POINT('Ctrl Pts',(18.4615384615385,35.4848079836024,6.5));
#647=CARTESIAN_POINT('Origin',(0.,0.,6.5));
#648=CARTESIAN_POINT('Origin',(0.,0.,6.5));
#649=CARTESIAN_POINT('Origin',(0.,0.,5.5));
#650=CARTESIAN_POINT('Origin',(-17.,55.,5.5));
#651=CARTESIAN_POINT('',(-17.,-20.,5.5));
#652=CARTESIAN_POINT('',(-17.,55.,5.5));
#653=CARTESIAN_POINT('',(-17.,-20.,1.));
#654=CARTESIAN_POINT('',(-17.,-20.,1.));
#655=CARTESIAN_POINT('',(-17.,55.,1.));
#656=CARTESIAN_POINT('Origin',(17.,55.,5.5));
#657=CARTESIAN_POINT('',(17.,-20.,5.5));
#658=CARTESIAN_POINT('',(17.,55.,5.5));
#659=CARTESIAN_POINT('',(-17.,-20.,5.5));
#660=CARTESIAN_POINT('Origin',(0.,0.,27.9584054212077));
#661=CARTESIAN_POINT('',(10.5882352941176,-1.29668484615602E-15,29.375063606948));
#662=CARTESIAN_POINT('Origin',(0.,0.,29.375063606948));
#663=CARTESIAN_POINT('',(10.,-1.22464679914735E-15,27.9584054212077));
#664=CARTESIAN_POINT('Origin',(12.,-1.46957615897682E-15,27.9584054212077));
#665=CARTESIAN_POINT('',(-10.,-1.22464679914735E-15,27.9584054212077));
#666=CARTESIAN_POINT('Origin',(0.,0.,27.9584054212077));
#667=CARTESIAN_POINT('Origin',(0.,0.,27.9584054212077));
#668=CARTESIAN_POINT('Origin',(0.,0.,10.));
#669=CARTESIAN_POINT('',(-10.,-1.22464679914735E-15,12.));
#670=CARTESIAN_POINT('',(-10.,-1.22464679914735E-15,10.));
#671=CARTESIAN_POINT('',(10.,0.,12.));
#672=CARTESIAN_POINT('Origin',(0.,0.,12.));
#673=CARTESIAN_POINT('Origin',(0.,0.,12.));
#674=CARTESIAN_POINT('Origin',(0.,0.,40.));
#675=CARTESIAN_POINT('',(15.,9.18485099360515E-16,40.));
#676=CARTESIAN_POINT('',(-15.,9.18485099360515E-16,40.));
#677=CARTESIAN_POINT('Origin',(0.,0.,40.));
#678=CARTESIAN_POINT('Origin',(0.,0.,12.));
#679=CARTESIAN_POINT('',(12.,2.93915231795365E-15,10.));
#680=CARTESIAN_POINT('Origin',(12.,-1.46957615897682E-15,12.));
#681=CARTESIAN_POINT('Origin',(0.,0.,10.));
#682=CARTESIAN_POINT('Origin',(0.,0.,10.));
#683=CARTESIAN_POINT('',(38.,-4.65365783675994E-15,10.));
#684=CARTESIAN_POINT('Origin',(0.,0.,10.));
#685=CARTESIAN_POINT('Origin',(-6.,-55.,1.));
#686=CARTESIAN_POINT('',(-6.,-39.5474398665704,1.));
#687=CARTESIAN_POINT('',(-6.,-39.5474398665704,3.));
#688=CARTESIAN_POINT('',(-6.,-39.5474398665704,0.));
#689=CARTESIAN_POINT('',(-6.,-20.,1.));
#690=CARTESIAN_POINT('',(-6.,-55.,1.));
#691=CARTESIAN_POINT('',(-6.,-20.,3.));
#692=CARTESIAN_POINT('',(-6.,-20.,2.125));
#693=CARTESIAN_POINT('',(-6.,-55.,3.));
#694=CARTESIAN_POINT('Origin',(-6.,-55.,3.));
#695=CARTESIAN_POINT('',(6.,-39.5474398665704,3.));
#696=CARTESIAN_POINT('Origin',(0.,0.,3.));
#697=CARTESIAN_POINT('',(6.,-20.,3.));
#698=CARTESIAN_POINT('',(-3.,-20.,3.));
#699=CARTESIAN_POINT('',(6.,-55.,3.));
#700=CARTESIAN_POINT('Origin',(6.,-55.,3.));
#701=CARTESIAN_POINT('',(6.,-39.5474398665704,1.));
#702=CARTESIAN_POINT('',(6.,-39.5474398665704,0.));
#703=CARTESIAN_POINT('',(6.,-20.,1.));
#704=CARTESIAN_POINT('',(6.,-20.,3.125));
#705=CARTESIAN_POINT('',(6.,-55.,1.));
#706=CARTESIAN_POINT('Origin',(0.,-20.,3.25));
#707=CARTESIAN_POINT('',(17.,-20.,1.));
#708=CARTESIAN_POINT('',(17.,-20.,1.));
#709=CARTESIAN_POINT('',(17.,-20.,5.5));
#710=CARTESIAN_POINT('',(17.,-20.,1.));
#711=CARTESIAN_POINT('Origin',(-17.,55.,1.));
#712=CARTESIAN_POINT('Origin',(0.,0.,1.));
#713=CARTESIAN_POINT('',(17.,55.,1.));
#714=CARTESIAN_POINT('Origin',(17.,55.,1.));
#715=CARTESIAN_POINT('Origin',(0.,0.,9.));
#716=CARTESIAN_POINT('',(40.,4.89858719658941E-15,8.));
#717=CARTESIAN_POINT('',(39.,4.77612251667468E-15,9.));
#718=CARTESIAN_POINT('',(-40.,-4.89858719658941E-15,8.));
#719=CARTESIAN_POINT('Origin',(0.,0.,8.));
#720=CARTESIAN_POINT('Origin',(0.,0.,8.));
#721=CARTESIAN_POINT('Origin',(0.,0.,0.));
#722=CARTESIAN_POINT('',(-40.,-4.89858719658941E-15,0.));
#723=CARTESIAN_POINT('',(-40.,-4.89858719658941E-15,0.));
#724=CARTESIAN_POINT('Origin',(0.,0.,0.));
#725=CARTESIAN_POINT('Origin',(0.,0.,0.));
#726=CARTESIAN_POINT('Origin',(0.,0.,0.));
#727=CARTESIAN_POINT('',(0.,0.,40.));
#728=UNCERTAINTY_MEASURE_WITH_UNIT(LENGTH_MEASURE(0.01),#732,
'DISTANCE_ACCURACY_VALUE',
'Maximum model space distance between geometric entities at asserted c
onnectivities');
#729=UNCERTAINTY_MEASURE_WITH_UNIT(LENGTH_MEASURE(0.01),#732,
'DISTANCE_ACCURACY_VALUE',
'Maximum model space distance between geometric entities at asserted c
onnectivities');
#730=(
GEOMETRIC_REPRESENTATION_CONTEXT(3)
GLOBAL_UNCERTAINTY_ASSIGNED_CONTEXT((#728))
GLOBAL_UNIT_ASSIGNED_CONTEXT((#732,#734,#735))
REPRESENTATION_CONTEXT('','3D')
);
#731=(
GEOMETRIC_REPRESENTATION_CONTEXT(3)
GLOBAL_UNCERTAINTY_ASSIGNED_CONTEXT((#729))
GLOBAL_UNIT_ASSIGNED_CONTEXT((#732,#734,#735))
REPRESENTATION_CONTEXT('','3D')
);
#732=(
LENGTH_UNIT()
NAMED_UNIT(*)
SI_UNIT(.MILLI.,.METRE.)
);
#733=(
LENGTH_UNIT()
NAMED_UNIT(*)
SI_UNIT(.CENTI.,.METRE.)
);
#734=(
NAMED_UNIT(*)
PLANE_ANGLE_UNIT()
SI_UNIT($,.RADIAN.)
);
#735=(
NAMED_UNIT(*)
SI_UNIT($,.STERADIAN.)
SOLID_ANGLE_UNIT()
);
#736=SHAPE_DEFINITION_REPRESENTATION(#737,#738);
#737=PRODUCT_DEFINITION_SHAPE('',$,#740);
#738=SHAPE_REPRESENTATION('',(#399),#730);
#739=PRODUCT_DEFINITION_CONTEXT('part definition',#744,'design');
#740=PRODUCT_DEFINITION('tagBase','tagBase',#741,#739);
#741=PRODUCT_DEFINITION_FORMATION('',$,#746);
#742=PRODUCT_RELATED_PRODUCT_CATEGORY('tagBase','tagBase',(#746));
#743=APPLICATION_PROTOCOL_DEFINITION('international standard',
'automotive_design',2009,#744);
#744=APPLICATION_CONTEXT(
'Core Data for Automotive Mechanical Design Process');
#745=PRODUCT_CONTEXT('part definition',#744,'mechanical');
#746=PRODUCT('tagBase','tagBase',$,(#745));
#747=PRESENTATION_STYLE_ASSIGNMENT((#749));
#748=PRESENTATION_STYLE_ASSIGNMENT((#750));
#749=SURFACE_STYLE_USAGE(.BOTH.,#753);
#750=SURFACE_STYLE_USAGE(.BOTH.,#754);
#751=SURFACE_STYLE_RENDERING_WITH_PROPERTIES($,#761,(#752));
#752=SURFACE_STYLE_TRANSPARENT(0.);
#753=SURFACE_SIDE_STYLE('',(#755,#751));
#754=SURFACE_SIDE_STYLE('',(#756));
#755=SURFACE_STYLE_FILL_AREA(#757);
#756=SURFACE_STYLE_FILL_AREA(#758);
#757=FILL_AREA_STYLE('',(#759));
#758=FILL_AREA_STYLE('',(#760));
#759=FILL_AREA_STYLE_COLOUR('',#761);
#760=FILL_AREA_STYLE_COLOUR('',#762);
#761=COLOUR_RGB('',0.749019607843137,0.749019607843137,0.749019607843137);
#762=COLOUR_RGB('',1.,1.,0.);
ENDSEC;
END-ISO-10303-21;
